<?xml version="1.0" encoding="UTF-8" standalone="no"?>
<svg
   xmlns:dc="http://purl.org/dc/elements/1.1/"
   xmlns:cc="http://creativecommons.org/ns#"
   xmlns:rdf="http://www.w3.org/1999/02/22-rdf-syntax-ns#"
   xmlns:svg="http://www.w3.org/2000/svg"
   xmlns="http://www.w3.org/2000/svg"
   xmlns:sodipodi="http://sodipodi.sourceforge.net/DTD/sodipodi-0.dtd"
   xmlns:inkscape="http://www.inkscape.org/namespaces/inkscape"
   id="Layer_1"
   viewBox="0 0 698.55719 92"
   version="1.1"
   sodipodi:docname="Discord Logo.svg"
   inkscape:version="0.92.4 (5da689c313, 2019-01-14)"
   width="698.55719"
   height="92"
   inkscape:export-filename="Z:\WinUser\Downloads\Discord Logo.png"
   inkscape:export-xdpi="96"
   inkscape:export-ydpi="96">
  <metadata
     id="metadata11">
    <rdf:RDF>
      <cc:Work
         rdf:about="">
        <dc:format>image/svg+xml</dc:format>
        <dc:type
           rdf:resource="http://purl.org/dc/dcmitype/StillImage" />
      </cc:Work>
    </rdf:RDF>
  </metadata>
  <defs
     id="defs9" />
  <sodipodi:namedview
     pagecolor="#ffffff"
     bordercolor="#666666"
     borderopacity="1"
     objecttolerance="10"
     gridtolerance="10"
     guidetolerance="10"
     inkscape:pageopacity="0"
     inkscape:pageshadow="2"
     inkscape:window-width="1920"
     inkscape:window-height="1017"
     id="namedview7"
     showgrid="false"
     inkscape:zoom="5.6568542"
     inkscape:cx="536.03808"
     inkscape:cy="37.336938"
     inkscape:window-x="-8"
     inkscape:window-y="-8"
     inkscape:window-maximized="1"
     inkscape:current-layer="Layer_1" />
  <style
     id="style2">.st0{fill:#FFFFFF;}</style>
  <path
     class="st0"
     d="M 33.2,1.3 H 0 v 37.6 l 22.1,20 V 22.4 H 34 c 7.5,0 11.2,3.7 11.2,9.5 v 27.9 c 0,5.8 -3.5,9.7 -11.2,9.7 H 0 V 90.7 H 33.2 C 51,90.8 67.7,81.9 67.7,61.3 V 31.2 C 67.7,10.4 51,1.3 33.2,1.3 Z M 207.3,61.4 V 30.6 c 0,-11.1 19.8,-13.7 25.8,-2.5 l 18.3,-7.5 C 244.3,4.7 231.1,0 220.2,0 202.4,0 184.8,10.4 184.8,30.6 v 30.8 c 0,20.3 17.6,30.6 35,30.6 11.2,0 24.6,-5.6 32,-20.1 l -19.6,-9.1 c -4.8,12.4 -24.9,9.4 -24.9,-1.4 z M 146.7,34.8 c -6.9,-1.5 -11.5,-4 -11.8,-8.3 0.4,-10.4 16.3,-10.7 25.6,-0.8 L 175.2,14.3 C 166,3 155.6,0 144.8,0 c -16.3,0 -32.1,9.2 -32.1,26.8 0,17.1 13,26.2 27.3,28.4 7.3,1 15.4,3.9 15.2,9 -0.6,9.6 -20.2,9.1 -29.1,-1.8 L 112,75.8 c 8.3,10.7 19.6,16.2 30.2,16.2 16.3,0 34.4,-9.5 35.1,-26.8 1,-22 -14.8,-27.5 -30.6,-30.4 z M 79.8,90.7 h 22.4 V 1.3 H 79.8 Z M 457.5,1.3 h -33.2 v 37.6 l 22.1,20 V 22.4 h 11.8 c 7.5,0 11.2,3.7 11.2,9.5 v 27.9 c 0,5.8 -3.5,9.7 -11.2,9.7 h -34 v 21.2 h 33.2 c 17.8,0.1 34.5,-8.8 34.5,-29.4 V 31.2 C 492,10.4 475.3,1.3 457.5,1.3 Z M 294.6,0 c -18.4,0 -36.7,10.1 -36.7,30.7 v 30.6 c 0,20.5 18.4,30.7 36.9,30.7 18.4,0 36.7,-10.2 36.7,-30.7 V 30.7 C 331.5,10.2 313,0 294.6,0 Z M 309,61.3 c 0,6.4 -7.2,9.7 -14.3,9.7 -7.2,0 -14.4,-3.2 -14.4,-9.7 V 30.7 c 0,-6.6 7,-10.1 14,-10.1 7.3,0 14.7,3.2 14.7,10.1 z M 411.8,30.7 C 411.3,9.7 397.1,1.3 378.8,1.3 H 343.3 V 90.8 H 366 V 62.3 h 4 l 20.6,28.4 h 28 L 394.4,60 c 10.8,-3.4 17.4,-12.7 17.4,-29.3 z M 379.2,42.8 H 366 V 22.4 h 13.2 c 14.2,0 14.2,20.4 0,20.4 z"
     id="path4"
     inkscape:connector-curvature="0"
     style="fill:#ffffff" />
  <g
     aria-label="Flex"
     style="font-style:normal;font-weight:normal;font-size:40px;line-height:1.25;font-family:sans-serif;letter-spacing:0px;word-spacing:0px;opacity:0.5;fill:#ffffff;fill-opacity:1;stroke:none"
     id="text19"
     transform="matrix(3.1308689,0,0,3.1308689,-1166.4772,-252.75632)">
    <path
       d="m 534.63757,93.723427 h 14.39453 v 2.26563 H 534.63757 V 109.7 h -2.24609 V 81.145307 h 18.16406 v 2.26562 h -15.91797 z"
       style="font-style:normal;font-variant:normal;font-weight:normal;font-stretch:normal;font-family:'Aovel Sans';-inkscape-font-specification:'Aovel Sans';fill:#ffffff;fill-opacity:1"
       id="path12"
       inkscape:connector-curvature="0" />
    <path
       d="m 551.82507,81.145307 h 2.2006 V 109.7 h -2.2006 z"
       style="font-style:normal;font-variant:normal;font-weight:normal;font-stretch:normal;font-family:'Aovel Sans';-inkscape-font-specification:'Aovel Sans';fill:#ffffff;fill-opacity:1;stroke-width:1.00416005"
       id="path14"
       inkscape:connector-curvature="0" />
    <path
       d="m 572.41101,97.649217 q -0.0781,-1.46485 -0.52734,-2.69531 -0.44922,-1.23047 -1.17188,-2.26563 -0.85937,-1.05469 -2.14844,-1.62109 -1.28906,-0.58594 -2.94921,-0.58594 -1.34766,0 -2.53907,0.54687 -1.1914,0.52735 -2.16797,1.50391 -0.8789,0.99609 -1.40625,2.24609 -0.52734,1.25 -0.74218,2.8711 z m -13.73047,2.20703 q 0.0781,1.660153 0.48828,2.949213 0.41016,1.28907 1.15235,2.36329 0.80078,1.17187 2.07031,1.73828 1.26953,0.54687 3.10547,0.5664 2.79297,-0.0195 4.47265,-1.5625 1.69922,-1.5625 2.32422,-4.74609 h 2.22657 q -0.58594,4.41406 -2.94922,6.44531 -2.44141,2.07031 -6.01563,2.08985 -4.74609,-0.0391 -6.93359,-3.16407 -2.20703,-3.00781 -2.16797,-7.558593 0.0391,-2.55859 0.76172,-4.53125 0.72265,-1.99218 2.07031,-3.39843 h -0.0195 q 2.61719,-2.79297 6.28906,-2.79297 2.40235,0.0391 4.17969,0.91797 1.79687,0.85937 2.92969,2.48046 0.42968,0.70313 0.78125,1.52344 0.37109,0.82031 0.64453,1.69922 0.27344,0.87891 0.42969,1.79688 0.15625,0.89843 0.15625,1.77734 0,0.0586 0,0.13672 0,0.0781 -0.0195,0.23437 0,0.13672 -0.0195,0.39063 -0.0195,0.23437 -0.0586,0.64453 z"
       style="font-style:normal;font-variant:normal;font-weight:normal;font-stretch:normal;font-family:'Aovel Sans';-inkscape-font-specification:'Aovel Sans';fill:#ffffff;fill-opacity:1"
       id="path16"
       inkscape:connector-curvature="0" />
    <path
       d="m 592.25476,89.133587 h 2.73438 l -7.51954,9.96093 q 0.87891,1.132823 1.79688,2.324233 0.91797,1.17187 1.85547,2.40234 0.52734,0.68359 1.13281,1.46484 0.60547,0.76172 1.21094,1.54297 0.60547,0.78125 1.17187,1.52344 0.58594,0.74219 1.05469,1.34766 h -2.8125 l -6.83594,-8.84766 q -0.33203,0.42969 -0.70312,0.91797 -0.35156,0.46875 -0.6836,0.91797 -1.34765,1.71875 -2.73437,3.51562 -1.36719,1.79688 -2.65625,3.4961 h -2.83203 l 8.24219,-10.625013 q -0.78125,-1.05469 -1.6211,-2.14844 -0.83984,-1.09375 -1.67969,-2.20703 -0.46875,-0.64453 -1.03515,-1.36718 -0.54688,-0.72266 -1.11328,-1.46485 -0.54688,-0.74219 -1.07422,-1.44531 -0.52735,-0.72266 -0.95703,-1.30859 h 2.79297 l 6.05468,8.14453 z"
       style="font-style:normal;font-variant:normal;font-weight:normal;font-stretch:normal;font-family:'Aovel Sans';-inkscape-font-specification:'Aovel Sans';fill:#ffffff;fill-opacity:1"
       id="path18"
       inkscape:connector-curvature="0" />
  </g>
</svg>
